<svg width="413" height="150" viewBox="0 0 413 150" fill="none" xmlns="http://www.w3.org/2000/svg">
<path d="M158.3 72V34.75H166.05V65.25H181.8V72H158.3ZM198.644 72.6C195.944 72.6 193.477 71.9833 191.244 70.75C189.044 69.5167 187.277 67.8333 185.944 65.7C184.644 63.5333 183.994 61.0833 183.994 58.35C183.994 55.5833 184.644 53.1333 185.944 51C187.277 48.8667 189.044 47.1833 191.244 45.95C193.477 44.7167 195.944 44.1 198.644 44.1C201.344 44.1 203.794 44.7167 205.994 45.95C208.194 47.1833 209.944 48.8667 211.244 51C212.577 53.1333 213.244 55.5833 213.244 58.35C213.244 61.0833 212.577 63.5333 211.244 65.7C209.944 67.8333 208.194 69.5167 205.994 70.75C203.794 71.9833 201.344 72.6 198.644 72.6ZM198.644 65.85C200.01 65.85 201.194 65.5333 202.194 64.9C203.227 64.2667 204.027 63.3833 204.594 62.25C205.194 61.1167 205.494 59.8167 205.494 58.35C205.494 56.8833 205.194 55.6 204.594 54.5C204.027 53.3667 203.227 52.4833 202.194 51.85C201.194 51.1833 200.01 50.85 198.644 50.85C197.277 50.85 196.077 51.1833 195.044 51.85C194.01 52.4833 193.194 53.3667 192.594 54.5C192.027 55.6 191.744 56.8833 191.744 58.35C191.744 59.8167 192.027 61.1167 192.594 62.25C193.194 63.3833 194.01 64.2667 195.044 64.9C196.077 65.5333 197.277 65.85 198.644 65.85ZM226.112 72.6C224.145 72.6 222.445 72.2833 221.012 71.65C219.579 71.0167 218.479 70.1167 217.712 68.95C216.945 67.75 216.562 66.3333 216.562 64.7C216.562 63.1667 216.912 61.8167 217.612 60.65C218.312 59.45 219.379 58.45 220.812 57.65C222.279 56.85 224.095 56.2833 226.262 55.95L234.612 54.6V60.1L227.612 61.35C226.545 61.55 225.729 61.9 225.162 62.4C224.595 62.8667 224.312 63.55 224.312 64.45C224.312 65.2833 224.629 65.9333 225.262 66.4C225.895 66.8667 226.679 67.1 227.612 67.1C228.845 67.1 229.929 66.8333 230.862 66.3C231.795 65.7667 232.512 65.05 233.012 64.15C233.545 63.2167 233.812 62.2 233.812 61.1V54C233.812 52.9667 233.395 52.1 232.562 51.4C231.762 50.7 230.662 50.35 229.262 50.35C227.929 50.35 226.745 50.7167 225.712 51.45C224.712 52.1833 223.979 53.15 223.512 54.35L217.512 51.5C218.045 49.9667 218.895 48.65 220.062 47.55C221.229 46.45 222.629 45.6 224.262 45C225.895 44.4 227.679 44.1 229.612 44.1C231.912 44.1 233.945 44.5167 235.712 45.35C237.479 46.1833 238.845 47.35 239.812 48.85C240.812 50.3167 241.312 52.0333 241.312 54V72H234.312V67.6L236.012 67.3C235.212 68.5 234.329 69.5 233.362 70.3C232.395 71.0667 231.312 71.6333 230.112 72C228.912 72.4 227.579 72.6 226.112 72.6ZM246.813 72V44.7H253.813V50.1L253.413 48.9C254.046 47.2667 255.063 46.0667 256.463 45.3C257.896 44.5 259.563 44.1 261.463 44.1C263.529 44.1 265.329 44.5333 266.863 45.4C268.429 46.2667 269.646 47.4833 270.513 49.05C271.379 50.5833 271.813 52.3833 271.813 54.45V72H264.313V56.05C264.313 54.9833 264.096 54.0667 263.663 53.3C263.263 52.5333 262.679 51.9333 261.913 51.5C261.179 51.0667 260.313 50.85 259.313 50.85C258.346 50.85 257.479 51.0667 256.713 51.5C255.946 51.9333 255.346 52.5333 254.913 53.3C254.513 54.0667 254.313 54.9833 254.313 56.05V72H246.813ZM287.444 72.6C284.444 72.6 281.827 71.9 279.594 70.5C277.394 69.0667 275.894 67.15 275.094 64.75L280.594 62.15C281.294 63.6167 282.244 64.7667 283.444 65.6C284.644 66.4333 285.977 66.85 287.444 66.85C288.511 66.85 289.327 66.6333 289.894 66.2C290.461 65.7667 290.744 65.1667 290.744 64.4C290.744 64 290.644 63.6667 290.444 63.4C290.244 63.1 289.944 62.8333 289.544 62.6C289.144 62.3667 288.644 62.1667 288.044 62L283.394 60.7C281.161 60.0667 279.444 59.05 278.244 57.65C277.044 56.2167 276.444 54.5333 276.444 52.6C276.444 50.9 276.877 49.4167 277.744 48.15C278.611 46.8833 279.827 45.9 281.394 45.2C282.961 44.4667 284.761 44.1 286.794 44.1C289.461 44.1 291.794 44.7333 293.794 46C295.827 47.2333 297.261 48.9833 298.094 51.25L292.544 53.85C292.144 52.7167 291.411 51.8167 290.344 51.15C289.311 50.45 288.127 50.1 286.794 50.1C285.827 50.1 285.061 50.3 284.494 50.7C283.961 51.1 283.694 51.65 283.694 52.35C283.694 52.7167 283.794 53.05 283.994 53.35C284.194 53.65 284.511 53.9167 284.944 54.15C285.411 54.3833 285.977 54.6 286.644 54.8L290.994 56.1C293.261 56.7667 294.994 57.7833 296.194 59.15C297.394 60.4833 297.994 62.1333 297.994 64.1C297.994 65.8 297.544 67.2833 296.644 68.55C295.777 69.8167 294.561 70.8167 292.994 71.55C291.427 72.25 289.577 72.6 287.444 72.6ZM309.261 72L321.861 34.75H332.161L344.761 72H336.311L333.811 64.4H320.161L317.661 72H309.261ZM322.311 57.65H331.661L325.961 40.05H328.061L322.311 57.65ZM348.082 82V44.7H355.082V49.9L354.432 48.4C355.332 47.0333 356.549 45.9833 358.082 45.25C359.649 44.4833 361.432 44.1 363.432 44.1C366.032 44.1 368.382 44.7333 370.482 46C372.582 47.2667 374.249 48.9833 375.482 51.15C376.715 53.2833 377.332 55.6833 377.332 58.35C377.332 60.9833 376.715 63.3833 375.482 65.55C374.282 67.7167 372.632 69.4333 370.532 70.7C368.432 71.9667 366.049 72.6 363.382 72.6C361.515 72.6 359.782 72.2667 358.182 71.6C356.615 70.9 355.349 69.8833 354.382 68.55L355.582 67V82H348.082ZM362.482 65.85C363.882 65.85 365.115 65.5333 366.182 64.9C367.249 64.2667 368.082 63.3833 368.682 62.25C369.282 61.1167 369.582 59.8167 369.582 58.35C369.582 56.8833 369.282 55.6 368.682 54.5C368.082 53.3667 367.249 52.4833 366.182 51.85C365.115 51.1833 363.882 50.85 362.482 50.85C361.149 50.85 359.949 51.1667 358.882 51.8C357.849 52.4333 357.032 53.3167 356.432 54.45C355.865 55.5833 355.582 56.8833 355.582 58.35C355.582 59.8167 355.865 61.1167 356.432 62.25C357.032 63.3833 357.849 64.2667 358.882 64.9C359.949 65.5333 361.149 65.85 362.482 65.85ZM381.725 82V44.7H388.725V49.9L388.075 48.4C388.975 47.0333 390.191 45.9833 391.725 45.25C393.291 44.4833 395.075 44.1 397.075 44.1C399.675 44.1 402.025 44.7333 404.125 46C406.225 47.2667 407.891 48.9833 409.125 51.15C410.358 53.2833 410.975 55.6833 410.975 58.35C410.975 60.9833 410.358 63.3833 409.125 65.55C407.925 67.7167 406.275 69.4333 404.175 70.7C402.075 71.9667 399.691 72.6 397.025 72.6C395.158 72.6 393.425 72.2667 391.825 71.6C390.258 70.9 388.991 69.8833 388.025 68.55L389.225 67V82H381.725ZM396.125 65.85C397.525 65.85 398.758 65.5333 399.825 64.9C400.891 64.2667 401.725 63.3833 402.325 62.25C402.925 61.1167 403.225 59.8167 403.225 58.35C403.225 56.8833 402.925 55.6 402.325 54.5C401.725 53.3667 400.891 52.4833 399.825 51.85C398.758 51.1833 397.525 50.85 396.125 50.85C394.791 50.85 393.591 51.1667 392.525 51.8C391.491 52.4333 390.675 53.3167 390.075 54.45C389.508 55.5833 389.225 56.8833 389.225 58.35C389.225 59.8167 389.508 61.1167 390.075 62.25C390.675 63.3833 391.491 64.2667 392.525 64.9C393.591 65.5333 394.791 65.85 396.125 65.85Z" fill="#11142D"/>
<path d="M159.155 100V88.825H162.815C163.975 88.825 164.98 89.06 165.83 89.53C166.69 89.99 167.355 90.64 167.825 91.48C168.295 92.32 168.53 93.295 168.53 94.405C168.53 95.505 168.295 96.48 167.825 97.33C167.355 98.17 166.69 98.825 165.83 99.295C164.98 99.765 163.975 100 162.815 100H159.155ZM160.925 98.425H162.845C163.635 98.425 164.32 98.26 164.9 97.93C165.49 97.6 165.945 97.135 166.265 96.535C166.585 95.935 166.745 95.225 166.745 94.405C166.745 93.585 166.58 92.88 166.25 92.29C165.93 91.69 165.48 91.225 164.9 90.895C164.32 90.565 163.635 90.4 162.845 90.4H160.925V98.425ZM173.918 100.18C173.108 100.18 172.388 99.995 171.758 99.625C171.138 99.245 170.653 98.735 170.303 98.095C169.953 97.445 169.778 96.72 169.778 95.92C169.778 95.1 169.953 94.375 170.303 93.745C170.663 93.115 171.143 92.62 171.743 92.26C172.343 91.89 173.023 91.705 173.783 91.705C174.393 91.705 174.938 91.81 175.418 92.02C175.898 92.23 176.303 92.52 176.633 92.89C176.963 93.25 177.213 93.665 177.383 94.135C177.563 94.605 177.653 95.105 177.653 95.635C177.653 95.765 177.648 95.9 177.638 96.04C177.628 96.18 177.608 96.31 177.578 96.43H171.113V95.08H176.618L175.808 95.695C175.908 95.205 175.873 94.77 175.703 94.39C175.543 94 175.293 93.695 174.953 93.475C174.623 93.245 174.233 93.13 173.783 93.13C173.333 93.13 172.933 93.245 172.583 93.475C172.233 93.695 171.963 94.015 171.773 94.435C171.583 94.845 171.508 95.345 171.548 95.935C171.498 96.485 171.573 96.965 171.773 97.375C171.983 97.785 172.273 98.105 172.643 98.335C173.023 98.565 173.453 98.68 173.933 98.68C174.423 98.68 174.838 98.57 175.178 98.35C175.528 98.13 175.803 97.845 176.003 97.495L177.383 98.17C177.223 98.55 176.973 98.895 176.633 99.205C176.303 99.505 175.903 99.745 175.433 99.925C174.973 100.095 174.468 100.18 173.918 100.18ZM181.516 100L178.336 91.885H180.181L182.626 98.5H181.951L184.396 91.885H186.256L183.061 100H181.516ZM191.071 100.18C190.261 100.18 189.541 99.995 188.911 99.625C188.291 99.245 187.806 98.735 187.456 98.095C187.106 97.445 186.931 96.72 186.931 95.92C186.931 95.1 187.106 94.375 187.456 93.745C187.816 93.115 188.296 92.62 188.896 92.26C189.496 91.89 190.176 91.705 190.936 91.705C191.546 91.705 192.091 91.81 192.571 92.02C193.051 92.23 193.456 92.52 193.786 92.89C194.116 93.25 194.366 93.665 194.536 94.135C194.716 94.605 194.806 95.105 194.806 95.635C194.806 95.765 194.801 95.9 194.791 96.04C194.781 96.18 194.761 96.31 194.731 96.43H188.266V95.08H193.771L192.961 95.695C193.061 95.205 193.026 94.77 192.856 94.39C192.696 94 192.446 93.695 192.106 93.475C191.776 93.245 191.386 93.13 190.936 93.13C190.486 93.13 190.086 93.245 189.736 93.475C189.386 93.695 189.116 94.015 188.926 94.435C188.736 94.845 188.661 95.345 188.701 95.935C188.651 96.485 188.726 96.965 188.926 97.375C189.136 97.785 189.426 98.105 189.796 98.335C190.176 98.565 190.606 98.68 191.086 98.68C191.576 98.68 191.991 98.57 192.331 98.35C192.681 98.13 192.956 97.845 193.156 97.495L194.536 98.17C194.376 98.55 194.126 98.895 193.786 99.205C193.456 99.505 193.056 99.745 192.586 99.925C192.126 100.095 191.621 100.18 191.071 100.18ZM196.461 100V88.645H198.156V100H196.461ZM204.052 100.18C203.272 100.18 202.557 99.995 201.907 99.625C201.267 99.255 200.757 98.75 200.377 98.11C199.997 97.47 199.807 96.745 199.807 95.935C199.807 95.115 199.997 94.39 200.377 93.76C200.757 93.12 201.267 92.62 201.907 92.26C202.547 91.89 203.262 91.705 204.052 91.705C204.852 91.705 205.567 91.89 206.197 92.26C206.837 92.62 207.342 93.12 207.712 93.76C208.092 94.39 208.282 95.115 208.282 95.935C208.282 96.755 208.092 97.485 207.712 98.125C207.332 98.765 206.822 99.27 206.182 99.64C205.542 100 204.832 100.18 204.052 100.18ZM204.052 98.605C204.532 98.605 204.957 98.49 205.327 98.26C205.697 98.03 205.987 97.715 206.197 97.315C206.417 96.905 206.527 96.445 206.527 95.935C206.527 95.425 206.417 94.97 206.197 94.57C205.987 94.17 205.697 93.855 205.327 93.625C204.957 93.395 204.532 93.28 204.052 93.28C203.582 93.28 203.157 93.395 202.777 93.625C202.407 93.855 202.112 94.17 201.892 94.57C201.682 94.97 201.577 95.425 201.577 95.935C201.577 96.445 201.682 96.905 201.892 97.315C202.112 97.715 202.407 98.03 202.777 98.26C203.157 98.49 203.582 98.605 204.052 98.605ZM209.937 103V91.885H211.557V93.565L211.362 93.175C211.662 92.715 212.062 92.355 212.562 92.095C213.062 91.835 213.632 91.705 214.272 91.705C215.042 91.705 215.732 91.89 216.342 92.26C216.962 92.63 217.447 93.135 217.797 93.775C218.157 94.415 218.337 95.135 218.337 95.935C218.337 96.735 218.157 97.455 217.797 98.095C217.447 98.735 216.967 99.245 216.357 99.625C215.747 99.995 215.052 100.18 214.272 100.18C213.642 100.18 213.067 100.05 212.547 99.79C212.037 99.53 211.642 99.155 211.362 98.665L211.632 98.35V103H209.937ZM214.107 98.605C214.587 98.605 215.012 98.49 215.382 98.26C215.752 98.03 216.042 97.715 216.252 97.315C216.472 96.905 216.582 96.445 216.582 95.935C216.582 95.425 216.472 94.97 216.252 94.57C216.042 94.17 215.752 93.855 215.382 93.625C215.012 93.395 214.587 93.28 214.107 93.28C213.637 93.28 213.212 93.395 212.832 93.625C212.462 93.855 212.167 94.17 211.947 94.57C211.737 94.97 211.632 95.425 211.632 95.935C211.632 96.445 211.737 96.905 211.947 97.315C212.167 97.715 212.462 98.03 212.832 98.26C213.212 98.49 213.637 98.605 214.107 98.605ZM223.796 100.18C222.986 100.18 222.266 99.995 221.636 99.625C221.016 99.245 220.531 98.735 220.181 98.095C219.831 97.445 219.656 96.72 219.656 95.92C219.656 95.1 219.831 94.375 220.181 93.745C220.541 93.115 221.021 92.62 221.621 92.26C222.221 91.89 222.901 91.705 223.661 91.705C224.271 91.705 224.816 91.81 225.296 92.02C225.776 92.23 226.181 92.52 226.511 92.89C226.841 93.25 227.091 93.665 227.261 94.135C227.441 94.605 227.531 95.105 227.531 95.635C227.531 95.765 227.526 95.9 227.516 96.04C227.506 96.18 227.486 96.31 227.456 96.43H220.991V95.08H226.496L225.686 95.695C225.786 95.205 225.751 94.77 225.581 94.39C225.421 94 225.171 93.695 224.831 93.475C224.501 93.245 224.111 93.13 223.661 93.13C223.211 93.13 222.811 93.245 222.461 93.475C222.111 93.695 221.841 94.015 221.651 94.435C221.461 94.845 221.386 95.345 221.426 95.935C221.376 96.485 221.451 96.965 221.651 97.375C221.861 97.785 222.151 98.105 222.521 98.335C222.901 98.565 223.331 98.68 223.811 98.68C224.301 98.68 224.716 98.57 225.056 98.35C225.406 98.13 225.681 97.845 225.881 97.495L227.261 98.17C227.101 98.55 226.851 98.895 226.511 99.205C226.181 99.505 225.781 99.745 225.311 99.925C224.851 100.095 224.346 100.18 223.796 100.18ZM232.935 100.18C232.155 100.18 231.455 99.995 230.835 99.625C230.225 99.245 229.74 98.735 229.38 98.095C229.03 97.455 228.855 96.735 228.855 95.935C228.855 95.135 229.035 94.415 229.395 93.775C229.755 93.135 230.24 92.63 230.85 92.26C231.46 91.89 232.15 91.705 232.92 91.705C233.57 91.705 234.145 91.835 234.645 92.095C235.145 92.355 235.54 92.715 235.83 93.175L235.575 93.565V88.645H237.255V100H235.65V98.35L235.845 98.665C235.565 99.155 235.165 99.53 234.645 99.79C234.125 100.05 233.555 100.18 232.935 100.18ZM233.1 98.605C233.57 98.605 233.99 98.49 234.36 98.26C234.74 98.03 235.035 97.715 235.245 97.315C235.465 96.905 235.575 96.445 235.575 95.935C235.575 95.425 235.465 94.97 235.245 94.57C235.035 94.17 234.74 93.855 234.36 93.625C233.99 93.395 233.57 93.28 233.1 93.28C232.63 93.28 232.205 93.395 231.825 93.625C231.445 93.855 231.15 94.17 230.94 94.57C230.73 94.97 230.625 95.425 230.625 95.935C230.625 96.445 230.73 96.905 230.94 97.315C231.15 97.715 231.44 98.03 231.81 98.26C232.19 98.49 232.62 98.605 233.1 98.605ZM246.191 100.18C245.561 100.18 244.986 100.05 244.466 99.79C243.956 99.53 243.561 99.155 243.281 98.665L243.476 98.35V100H241.856V88.645H243.551V93.565L243.281 93.175C243.581 92.715 243.981 92.355 244.481 92.095C244.981 91.835 245.551 91.705 246.191 91.705C246.961 91.705 247.651 91.89 248.261 92.26C248.881 92.63 249.366 93.135 249.716 93.775C250.076 94.415 250.256 95.135 250.256 95.935C250.256 96.735 250.076 97.455 249.716 98.095C249.366 98.735 248.886 99.245 248.276 99.625C247.666 99.995 246.971 100.18 246.191 100.18ZM246.026 98.605C246.506 98.605 246.931 98.49 247.301 98.26C247.671 98.03 247.961 97.715 248.171 97.315C248.391 96.905 248.501 96.445 248.501 95.935C248.501 95.425 248.391 94.97 248.171 94.57C247.961 94.17 247.671 93.855 247.301 93.625C246.931 93.395 246.506 93.28 246.026 93.28C245.556 93.28 245.131 93.395 244.751 93.625C244.381 93.855 244.086 94.17 243.866 94.57C243.656 94.97 243.551 95.425 243.551 95.935C243.551 96.445 243.656 96.905 243.866 97.315C244.086 97.715 244.381 98.03 244.751 98.26C245.131 98.49 245.556 98.605 246.026 98.605ZM252.479 103.315C252.279 103.315 252.079 103.295 251.879 103.255C251.689 103.225 251.514 103.175 251.354 103.105V101.65C251.474 101.68 251.619 101.705 251.789 101.725C251.959 101.755 252.124 101.77 252.284 101.77C252.754 101.77 253.099 101.665 253.319 101.455C253.549 101.255 253.754 100.94 253.934 100.51L254.474 99.28L254.444 100.705L250.934 91.885H252.749L255.344 98.65H254.729L257.309 91.885H259.139L255.554 100.885C255.364 101.365 255.124 101.785 254.834 102.145C254.554 102.515 254.219 102.8 253.829 103C253.449 103.21 252.999 103.315 252.479 103.315Z" fill="#828282"/>
<path d="M263.011 100V88.825H264.961L269.146 94.51H268.216L272.311 88.825H274.261V100H272.206V91.15L273.001 91.345L268.756 97H268.516L264.376 91.345L265.051 91.15V100H263.011ZM277.164 100V97.9H279.144V100H277.164ZM284.734 100V88.825H286.774V93.7H291.529V88.825H293.584V100H291.529V95.5H286.774V100H284.734ZM298.045 100.18C297.475 100.18 296.98 100.085 296.56 99.895C296.14 99.705 295.815 99.435 295.585 99.085C295.355 98.725 295.24 98.31 295.24 97.84C295.24 97.39 295.34 96.99 295.54 96.64C295.74 96.28 296.05 95.98 296.47 95.74C296.89 95.5 297.42 95.33 298.06 95.23L300.73 94.795V96.295L298.435 96.685C298.045 96.755 297.755 96.88 297.565 97.06C297.375 97.24 297.28 97.475 297.28 97.765C297.28 98.045 297.385 98.27 297.595 98.44C297.815 98.6 298.085 98.68 298.405 98.68C298.815 98.68 299.175 98.595 299.485 98.425C299.805 98.245 300.05 98 300.22 97.69C300.4 97.38 300.49 97.04 300.49 96.67V94.57C300.49 94.22 300.35 93.93 300.07 93.7C299.8 93.46 299.44 93.34 298.99 93.34C298.57 93.34 298.195 93.455 297.865 93.685C297.545 93.905 297.31 94.2 297.16 94.57L295.555 93.79C295.715 93.36 295.965 92.99 296.305 92.68C296.655 92.36 297.065 92.11 297.535 91.93C298.005 91.75 298.515 91.66 299.065 91.66C299.735 91.66 300.325 91.785 300.835 92.035C301.345 92.275 301.74 92.615 302.02 93.055C302.31 93.485 302.455 93.99 302.455 94.57V100H300.595V98.605L301.015 98.575C300.805 98.925 300.555 99.22 300.265 99.46C299.975 99.69 299.645 99.87 299.275 100C298.905 100.12 298.495 100.18 298.045 100.18ZM304.271 100V91.84H306.236V100H304.271ZM304.271 90.925V88.825H306.236V90.925H304.271ZM308.051 100V91.84H309.896V93.655L309.746 93.385C309.936 92.775 310.231 92.35 310.631 92.11C311.041 91.87 311.531 91.75 312.101 91.75H312.581V93.49H311.876C311.316 93.49 310.866 93.665 310.526 94.015C310.186 94.355 310.016 94.835 310.016 95.455V100H308.051ZM316.571 100.18C315.941 100.18 315.391 100.04 314.921 99.76C314.461 99.48 314.106 99.09 313.856 98.59C313.616 98.09 313.496 97.505 313.496 96.835V91.84H315.461V96.67C315.461 97.01 315.526 97.31 315.656 97.57C315.796 97.82 315.991 98.02 316.241 98.17C316.501 98.31 316.791 98.38 317.111 98.38C317.431 98.38 317.716 98.31 317.966 98.17C318.216 98.02 318.411 97.815 318.551 97.555C318.691 97.295 318.761 96.985 318.761 96.625V91.84H320.726V100H318.866V98.395L319.031 98.68C318.841 99.18 318.526 99.555 318.086 99.805C317.656 100.055 317.151 100.18 316.571 100.18ZM322.553 100V88.645H324.518V100H322.553ZM326.332 100V88.645H328.297V100H326.332ZM332.586 100.18C332.016 100.18 331.521 100.085 331.101 99.895C330.681 99.705 330.356 99.435 330.126 99.085C329.896 98.725 329.781 98.31 329.781 97.84C329.781 97.39 329.881 96.99 330.081 96.64C330.281 96.28 330.591 95.98 331.011 95.74C331.431 95.5 331.961 95.33 332.601 95.23L335.271 94.795V96.295L332.976 96.685C332.586 96.755 332.296 96.88 332.106 97.06C331.916 97.24 331.821 97.475 331.821 97.765C331.821 98.045 331.926 98.27 332.136 98.44C332.356 98.6 332.626 98.68 332.946 98.68C333.356 98.68 333.716 98.595 334.026 98.425C334.346 98.245 334.591 98 334.761 97.69C334.941 97.38 335.031 97.04 335.031 96.67V94.57C335.031 94.22 334.891 93.93 334.611 93.7C334.341 93.46 333.981 93.34 333.531 93.34C333.111 93.34 332.736 93.455 332.406 93.685C332.086 93.905 331.851 94.2 331.701 94.57L330.096 93.79C330.256 93.36 330.506 92.99 330.846 92.68C331.196 92.36 331.606 92.11 332.076 91.93C332.546 91.75 333.056 91.66 333.606 91.66C334.276 91.66 334.866 91.785 335.376 92.035C335.886 92.275 336.281 92.615 336.561 93.055C336.851 93.485 336.996 93.99 336.996 94.57V100H335.136V98.605L335.556 98.575C335.346 98.925 335.096 99.22 334.806 99.46C334.516 99.69 334.186 99.87 333.816 100C333.446 100.12 333.036 100.18 332.586 100.18ZM338.812 100V88.645H340.777V93.445L340.507 93.16C340.697 92.67 341.007 92.3 341.437 92.05C341.877 91.79 342.387 91.66 342.967 91.66C343.567 91.66 344.097 91.79 344.557 92.05C345.027 92.31 345.392 92.675 345.652 93.145C345.912 93.605 346.042 94.14 346.042 94.75V100H344.077V95.215C344.077 94.855 344.007 94.545 343.867 94.285C343.727 94.025 343.532 93.825 343.282 93.685C343.042 93.535 342.757 93.46 342.427 93.46C342.107 93.46 341.822 93.535 341.572 93.685C341.322 93.825 341.127 94.025 340.987 94.285C340.847 94.545 340.777 94.855 340.777 95.215V100H338.812Z" fill="#14B8A6"/>
<path d="M57.8105 110.986C52.2329 110.986 47.7334 106.423 47.8115 100.846L48.8272 28.3343C48.9593 18.9013 60.8809 14.881 66.6984 22.3077L123.5 94.8195C128.641 101.383 123.965 110.986 115.627 110.986L57.8105 110.986Z" fill="#4F46E5"/>
<path d="M136.372 110.986C141.95 110.986 146.449 106.423 146.371 100.846L145.355 28.3343C145.223 18.9013 133.302 14.881 127.484 22.3077L70.6828 94.8195C65.5414 101.383 70.2176 110.986 78.5551 110.986L136.372 110.986Z" fill="#14B8A6"/>
</svg>
